<svg width="30" height="30" viewBox="0 0 30 30" fill="none" xmlns="http://www.w3.org/2000/svg">
<path d="M23.6876 18.584C23.0735 17.9445 22.3327 17.6026 21.5475 17.6026C20.7687 17.6026 20.0216 17.9382 19.3821 18.5777L17.3813 20.5722C17.2166 20.4835 17.052 20.4012 16.8937 20.3189C16.6658 20.2049 16.4505 20.0973 16.2669 19.9833C14.3927 18.793 12.6895 17.2417 11.0559 15.2345C10.2644 14.2341 9.73256 13.392 9.34632 12.5372C9.86552 12.0624 10.3467 11.5685 10.8153 11.0936C10.9926 10.9163 11.1699 10.7327 11.3471 10.5554C12.6768 9.22576 12.6768 7.50353 11.3471 6.17388L9.61859 4.44532C9.4223 4.24904 9.21969 4.04642 9.02974 3.84381C8.64984 3.45124 8.25094 3.04601 7.83938 2.66611C7.2252 2.05827 6.49073 1.73535 5.71826 1.73535C4.94579 1.73535 4.19865 2.05827 3.56548 2.66611C3.55915 2.67244 3.55915 2.67244 3.55281 2.67878L1.40003 4.85055C0.589576 5.66101 0.127361 6.64876 0.026054 7.79479C-0.125907 9.64365 0.41862 11.3659 0.836512 12.4929C1.86225 15.2599 3.39452 17.8242 5.68027 20.5722C8.45355 23.8837 11.7904 26.4986 15.602 28.3412C17.0583 29.0313 19.0022 29.8481 21.174 29.9874C21.3069 29.9938 21.4462 30.0001 21.5728 30.0001C23.0355 30.0001 24.2638 29.4746 25.2262 28.4298C25.2326 28.4172 25.2452 28.4108 25.2516 28.3982C25.5808 27.9993 25.9607 27.6384 26.3596 27.2521C26.6319 26.9925 26.9105 26.7203 27.1827 26.4353C27.8096 25.7832 28.1388 25.0234 28.1388 24.2446C28.1388 23.4594 27.8032 22.706 27.1637 22.0728L23.6876 18.584ZM25.9544 25.2513C25.9481 25.2513 25.9481 25.2576 25.9544 25.2513C25.7075 25.5172 25.4542 25.7578 25.1819 26.0238C24.7704 26.4163 24.3525 26.8279 23.9599 27.2901C23.3204 27.9739 22.5669 28.2969 21.5792 28.2969C21.4842 28.2969 21.3829 28.2969 21.2879 28.2905C19.4074 28.1702 17.6599 27.4357 16.3492 26.8089C12.7654 25.074 9.61859 22.611 7.00359 19.4895C4.84448 16.8871 3.40085 14.4811 2.44477 11.8977C1.85592 10.3211 1.64064 9.09279 1.73561 7.93409C1.79893 7.19328 2.08386 6.57911 2.60939 6.05358L4.7685 3.89446C5.07875 3.6032 5.408 3.44491 5.73092 3.44491C6.12982 3.44491 6.45273 3.68552 6.65535 3.88813C6.66168 3.89446 6.66801 3.90079 6.67434 3.90713C7.06058 4.26803 7.42782 4.6416 7.81405 5.0405C8.01033 5.24312 8.21295 5.44573 8.41556 5.65468L10.1441 7.38323C10.8153 8.05439 10.8153 8.6749 10.1441 9.34606C9.9605 9.52968 9.78321 9.7133 9.59959 9.89059C9.06773 10.4351 8.56119 10.9417 8.01033 11.4355C7.99767 11.4482 7.98501 11.4545 7.97868 11.4672C7.43415 12.0117 7.53546 12.5436 7.64943 12.9045C7.65576 12.9235 7.66209 12.9425 7.66842 12.9615C8.11797 14.0505 8.75114 15.0763 9.71356 16.2983L9.7199 16.3046C11.4674 18.4574 13.31 20.1353 15.3424 21.4206C15.602 21.5852 15.868 21.7182 16.1212 21.8448C16.3492 21.9588 16.5645 22.0665 16.7481 22.1804C16.7734 22.1931 16.7987 22.2121 16.8241 22.2248C17.0393 22.3324 17.242 22.383 17.4509 22.383C17.9764 22.383 18.3057 22.0538 18.4133 21.9462L20.5788 19.7807C20.794 19.5654 21.136 19.3058 21.5349 19.3058C21.9274 19.3058 22.2503 19.5528 22.4466 19.768C22.453 19.7744 22.453 19.7744 22.4593 19.7807L25.9481 23.2695C26.6002 23.9153 26.6002 24.5801 25.9544 25.2513Z" fill="#E2AB3F"/>
<path d="M16.1909 7.13611C17.8498 7.4147 19.3567 8.19983 20.5598 9.40286C21.7628 10.6059 22.5416 12.1128 22.8265 13.7717C22.8962 14.1896 23.2571 14.4809 23.6686 14.4809C23.7193 14.4809 23.7636 14.4746 23.8143 14.4682C24.2828 14.3922 24.5931 13.949 24.5171 13.4805C24.1752 11.4733 23.2254 9.64346 21.7755 8.1935C20.3255 6.74354 18.4956 5.79379 16.4885 5.45187C16.0199 5.37589 15.5831 5.68615 15.5007 6.14836C15.4184 6.61058 15.7224 7.06013 16.1909 7.13611Z" fill="#E2AB3F"/>
<path d="M29.9439 13.2336C29.3804 9.92848 27.8228 6.92092 25.4294 4.52754C23.036 2.13415 20.0285 0.576553 16.7233 0.0130316C16.2611 -0.0692806 15.8242 0.247305 15.7419 0.709519C15.6659 1.17807 15.9762 1.61495 16.4447 1.69727C19.3953 2.19747 22.0863 3.59678 24.2264 5.73056C26.3665 7.87068 27.7595 10.5617 28.2597 13.5122C28.3293 13.9301 28.6902 14.2214 29.1018 14.2214C29.1525 14.2214 29.1968 14.215 29.2474 14.2087C29.7096 14.1391 30.0262 13.6958 29.9439 13.2336Z" fill="#E2AB3F"/>
</svg>
