<svg width="30" height="30" viewBox="0 0 30 30" fill="none" xmlns="http://www.w3.org/2000/svg">
<path d="M23.6876 18.5839C23.0735 17.9444 22.3327 17.6025 21.5475 17.6025C20.7687 17.6025 20.0216 17.9381 19.3821 18.5776L17.3813 20.5721C17.2166 20.4834 17.052 20.4011 16.8937 20.3188C16.6658 20.2048 16.4505 20.0972 16.2669 19.9832C14.3927 18.7929 12.6895 17.2416 11.0559 15.2344C10.2644 14.234 9.73256 13.3919 9.34632 12.5371C9.86552 12.0623 10.3467 11.5684 10.8153 11.0935C10.9926 10.9162 11.1699 10.7326 11.3471 10.5553C12.6768 9.22565 12.6768 7.50343 11.3471 6.17377L9.61859 4.44521C9.4223 4.24893 9.21969 4.04632 9.02974 3.8437C8.64984 3.45114 8.25094 3.04591 7.83938 2.66601C7.2252 2.05816 6.49073 1.73524 5.71826 1.73524C4.94579 1.73524 4.19865 2.05816 3.56548 2.66601C3.55915 2.67234 3.55915 2.67234 3.55281 2.67867L1.40003 4.85044C0.589576 5.6609 0.127361 6.64865 0.026054 7.79469C-0.125907 9.64355 0.41862 11.3658 0.836512 12.4928C1.86225 15.2598 3.39452 17.8241 5.68027 20.5721C8.45355 23.8836 11.7904 26.4985 15.602 28.3411C17.0583 29.0312 19.0022 29.848 21.174 29.9873C21.3069 29.9936 21.4462 30 21.5728 30C23.0355 30 24.2638 29.4744 25.2262 28.4297C25.2326 28.4171 25.2452 28.4107 25.2516 28.3981C25.5808 27.9992 25.9607 27.6383 26.3596 27.252C26.6319 26.9924 26.9105 26.7202 27.1827 26.4352C27.8096 25.7831 28.1388 25.0233 28.1388 24.2445C28.1388 23.4593 27.8032 22.7059 27.1637 22.0727L23.6876 18.5839ZM25.9544 25.2512C25.9481 25.2512 25.9481 25.2575 25.9544 25.2512C25.7075 25.5171 25.4542 25.7577 25.1819 26.0237C24.7704 26.4162 24.3525 26.8278 23.9599 27.29C23.3204 27.9738 22.5669 28.2967 21.5792 28.2967C21.4842 28.2967 21.3829 28.2967 21.2879 28.2904C19.4074 28.1701 17.6599 27.4356 16.3492 26.8088C12.7654 25.0739 9.61859 22.6109 7.00359 19.4893C4.84448 16.887 3.40085 14.481 2.44477 11.8976C1.85592 10.321 1.64064 9.09269 1.73561 7.93398C1.79893 7.19317 2.08386 6.579 2.60939 6.05347L4.7685 3.89436C5.07875 3.6031 5.408 3.44481 5.73092 3.44481C6.12982 3.44481 6.45273 3.68541 6.65535 3.88802C6.66168 3.89436 6.66801 3.90069 6.67434 3.90702C7.06058 4.26793 7.42782 4.6415 7.81405 5.0404C8.01033 5.24301 8.21295 5.44562 8.41556 5.65457L10.1441 7.38313C10.8153 8.05429 10.8153 8.67479 10.1441 9.34595C9.9605 9.52957 9.78321 9.71319 9.59959 9.89048C9.06773 10.435 8.56119 10.9415 8.01033 11.4354C7.99767 11.4481 7.98501 11.4544 7.97868 11.4671C7.43415 12.0116 7.53546 12.5435 7.64943 12.9044C7.65576 12.9234 7.66209 12.9424 7.66842 12.9614C8.11797 14.0504 8.75114 15.0761 9.71356 16.2982L9.7199 16.3045C11.4674 18.4573 13.31 20.1352 15.3424 21.4205C15.602 21.5851 15.868 21.7181 16.1212 21.8447C16.3492 21.9587 16.5645 22.0664 16.7481 22.1803C16.7734 22.193 16.7987 22.212 16.8241 22.2246C17.0393 22.3323 17.242 22.3829 17.4509 22.3829C17.9764 22.3829 18.3057 22.0537 18.4133 21.946L20.5788 19.7806C20.794 19.5653 21.136 19.3057 21.5349 19.3057C21.9274 19.3057 22.2503 19.5527 22.4466 19.7679C22.453 19.7743 22.453 19.7743 22.4593 19.7806L25.9481 23.2694C26.6002 23.9152 26.6002 24.58 25.9544 25.2512Z" fill="black"/>
<path d="M16.1909 7.13618C17.8498 7.41478 19.3567 8.19991 20.5598 9.40293C21.7628 10.606 22.5416 12.1129 22.8265 13.7718C22.8962 14.1897 23.2571 14.481 23.6686 14.481C23.7193 14.481 23.7636 14.4746 23.8143 14.4683C24.2828 14.3923 24.5931 13.9491 24.5171 13.4806C24.1752 11.4734 23.2254 9.64354 21.7755 8.19358C20.3255 6.74362 18.4956 5.79386 16.4885 5.45195C16.0199 5.37597 15.5831 5.68622 15.5007 6.14844C15.4184 6.61065 15.7224 7.0602 16.1909 7.13618Z" fill="black"/>
<path d="M29.9439 13.2336C29.3804 9.92848 27.8228 6.92092 25.4294 4.52754C23.036 2.13415 20.0285 0.576553 16.7233 0.0130316C16.2611 -0.0692806 15.8242 0.247305 15.7419 0.709519C15.6659 1.17807 15.9762 1.61495 16.4447 1.69727C19.3953 2.19747 22.0863 3.59678 24.2264 5.73056C26.3665 7.87068 27.7595 10.5617 28.2597 13.5122C28.3293 13.9301 28.6902 14.2214 29.1018 14.2214C29.1525 14.2214 29.1968 14.215 29.2474 14.2087C29.7096 14.1391 30.0262 13.6958 29.9439 13.2336Z" fill="black"/>
</svg>
